<svg xmlns:xlink="http://www.w3.org/1999/xlink" xmlns="http://www.w3.org/2000/svg" data-testid="ShopNow" viewBox="0 0 24 18" class="css-ekjjru" width="24"  height="18" ><path d="M20.2864 16.391C19.122 16.2453 18.183 15.3279 18.0346 14.1941C17.902 13.1817 18.3823 12.2654 19.1616 11.7476L20.2955 14.0197C20.36 14.1499 20.4937 14.225 20.6319 14.225C20.727 14.225 20.8233 14.1897 20.9026 14.1135C21.017 14.0031 21.0329 13.8287 20.9626 13.6873L19.8345 11.4286C20.1867 11.3182 20.5707 11.2784 20.9706 11.3281C22.1441 11.4738 23.091 12.4001 23.2326 13.5449C23.4376 15.2064 21.9934 16.6052 20.2864 16.391ZM18.6055 9.54847C16.9947 10.2683 15.9175 11.7918 15.7816 13.4953H1.19225C1.38028 11.6549 2.97741 10.212 4.91548 10.212H7.53432C7.54338 10.212 7.55017 10.2109 7.5581 10.2098C7.7416 11.6483 9.00345 12.7655 10.5281 12.7655H13.148C14.7961 12.7655 16.1384 11.4595 16.1418 9.85317C16.1463 9.68095 16.1803 7.35482 14.7191 5.47141H16.69L19.3066 9.29675C19.0676 9.36299 18.8331 9.44579 18.6055 9.54847ZM4.91548 16.4131C3.59814 16.4131 2.50507 15.4604 2.3227 14.225H7.50713C7.32476 15.4604 6.23283 16.4131 4.91548 16.4131ZM2.29552 6.92979C2.04858 6.92979 1.85715 6.69684 1.94098 6.44624C1.99082 6.29388 2.14826 6.20115 2.31251 6.20115H10.5122C10.6753 6.20115 10.8328 6.29388 10.8826 6.44624C10.9653 6.69684 10.775 6.92979 10.5281 6.92979H2.29552ZM14.2706 3.28218H15.1677C15.1688 3.28218 15.1699 3.28329 15.1711 3.28329L15.1722 3.28218H16.5156V4.74166H14.2706V3.28218ZM21.0351 10.6006C20.4948 10.5376 19.976 10.6039 19.5048 10.7673L19.1752 10.1082C19.6396 9.93597 20.1278 9.84765 20.6319 9.84765C21.6287 9.84765 22.5881 10.1987 23.3379 10.8368C23.4625 10.9417 23.6426 10.9792 23.7854 10.8964C24.0198 10.7618 24.0357 10.4637 23.8499 10.3036C22.9619 9.53963 21.819 9.11901 20.6319 9.11901C20.454 9.11901 20.2773 9.12784 20.1029 9.14661L17.2643 4.99558V2.91786C17.2643 2.71694 17.0967 2.55354 16.8894 2.55354H15.4044L14.2332 0.205343C14.1698 0.0805917 14.0395 0 13.8956 0H12.4152C12.2521 0 12.0935 0.0938397 12.0448 0.246191C11.9621 0.497902 12.1535 0.729742 12.3993 0.729742H13.6623L14.573 2.55354H13.8956C13.6895 2.55354 13.5218 2.71694 13.5218 2.91786V5.10598C13.5218 5.20866 13.5649 5.30029 13.634 5.36653C15.4531 7.11195 15.3942 9.81011 15.3931 9.83661V9.85317C15.4225 11.0609 14.3759 12.0369 13.1367 12.0369H10.5915C9.49844 12.0369 8.51411 11.3016 8.32042 10.2517C8.06669 8.88386 9.13031 7.68602 10.4828 7.65953C11.0038 7.64959 11.4875 7.33937 11.6144 6.84588C11.8012 6.12166 11.2417 5.47141 10.5281 5.47141H2.33969C1.80052 5.47141 1.30439 5.82137 1.19678 6.33694C1.04953 7.03908 1.5989 7.65953 2.29552 7.65953H2.8664C1.2908 8.62663 0.587383 9.99338 0.274754 11.083C-0.155677 12.5834 0.0459459 13.864 0.0550076 13.9181C0.0844582 14.0947 0.240773 14.225 0.424272 14.225H1.56831C1.75521 15.8633 3.1847 17.1429 4.91548 17.1429C6.64627 17.1429 8.07462 15.8633 8.26152 14.225H16.1418C16.3491 14.225 16.5156 14.0594 16.5156 13.8563C16.5167 12.4487 17.2836 11.1471 18.5024 10.4272L18.832 11.0874C17.7729 11.7432 17.1114 12.9598 17.2938 14.3045C17.492 15.7573 18.6961 16.9265 20.1867 17.1142C22.3831 17.3902 24.2407 15.5884 23.9745 13.4522C23.7899 11.9684 22.5564 10.775 21.0351 10.6006Z" fill="#FFFFFF"></path></svg>